<?xml version="1.0" encoding="utf-8"?>
<!-- Generator: Adobe Illustrator 22.1.0, SVG Export Plug-In . SVG Version: 6.00 Build 0)  -->
<svg version="1.1" id="Layer_1" xmlns="http://www.w3.org/2000/svg" xmlns:xlink="http://www.w3.org/1999/xlink" x="0px" y="0px"
	 width="595.3pt" height="841.9pt" viewBox="0 0 595.3 841.9" style="enable-background:new 0 0 595.3 841.9;" xml:space="preserve"
	>
<style type="text/css">
	.Drop_x0020_Shadow{fill:none;}
	.Round_x0020_Corners_x0020_2_x0020_pt{fill:#FFFFFF;stroke:#231F20;stroke-miterlimit:10;}
	.Live_x0020_Reflect_x0020_X{fill:none;}
	.Bevel_x0020_Soft{fill:url(#SVGID_1_);}
	.Dusk{fill:#FFFFFF;}
	.Foliage_GS{fill:#FFDD00;}
	.Pompadour_GS{fill-rule:evenodd;clip-rule:evenodd;fill:#44ACE1;}
	.st0{fill:#386FDA;}
	.st1{fill:#4378DE;}
	.st2{fill:#3C72DB;}
	.st3{fill:#628DE2;}
	.st4{fill:#5081DF;}
	.st5{fill:#6E96E4;}
	.st6{fill:#5C89E1;}
	.st7{fill:#4A7CDD;}
	.st8{fill:#4478DC;}
	.st9{display:none;fill:#FFFFFF;}
	.st10{fill:url(#Pillow_2_);stroke:#FFFFFF;}
	.st11{fill:#FF3209;}
</style>
<linearGradient id="SVGID_1_" gradientUnits="userSpaceOnUse" x1="0" y1="0" x2="0.7071" y2="0.7071">
	<stop  offset="0" style="stop-color:#DEDFE3"/>
	<stop  offset="0.1783" style="stop-color:#DADBDF"/>
	<stop  offset="0.3611" style="stop-color:#CECFD3"/>
	<stop  offset="0.546" style="stop-color:#B9BCBF"/>
	<stop  offset="0.7324" style="stop-color:#9CA0A2"/>
	<stop  offset="0.9181" style="stop-color:#787D7E"/>
	<stop  offset="1" style="stop-color:#656B6C"/>
</linearGradient>
<rect id="Background" class="st0" width="595.5" height="841.9"/>
<path id="Polygon_1_copy_20" class="st1" d="M498.4,499.7H309.2l94.6,163.8L498.4,499.7z"/>
<path id="Polygon_1_copy_21" class="st2" d="M694.4,499.7H505.2l94.6,163.8L694.4,499.7z"/>
<path id="Polygon_1_copy_26" class="st3" d="M595.1,668.6H405.8l94.6-163.8L595.1,668.6z"/>
<path id="Polygon_1_copy_24" class="st4" d="M403.1,671.8H213.9l94.6,163.8L403.1,671.8z"/>
<path id="Polygon_1_copy_25" class="st5" d="M593.2,671.8H404l94.6,163.8L593.2,671.8z"/>
<path id="Polygon_1_copy_32" class="st6" d="M498.2,840.3H308.9l94.6-163.8L498.2,840.3z"/>
<path id="Polygon_1_copy_35" class="st6" d="M689.5,840.3H500.2l94.6-163.8L689.5,840.3z"/>
<path id="Polygon_1_copy_37" class="st7" d="M690.7,497.7H501.5L596.1,334L690.7,497.7z"/>
<path id="Polygon_1_copy_45" class="st8" d="M308.2,840.3H118.9l94.6-163.8L308.2,840.3z"/>
<path id="Title" class="st9" d="M188.9,239.8v15.6c0.1,1.7-0.5,3.4-1.8,4.6c-1.3,1.1-2.9,1.7-4.6,1.6c-1.7,0.1-3.3-0.5-4.6-1.6
	c-1.2-1.2-1.9-2.9-1.8-4.6v-15.6h-1.9v15.6c0,2.5,0.8,4.4,2.2,5.8c1.6,1.4,3.8,2.1,5.9,2c2.2,0.1,4.3-0.6,6-2
	c1.5-1.3,2.3-3.2,2.3-5.8v-15.6H188.9L188.9,239.8z M204.9,260.7c-0.9,0.6-2.1,0.9-3.2,0.9c-1.2,0-2.3-0.2-3.3-0.8
	c-0.9-0.5-1.5-1.6-1.5-2.7H195v0.1c-0.1,1.4,0.5,2.7,1.7,3.6c2.9,1.9,6.6,2,9.5,0.2c1.1-0.8,1.8-2.1,1.7-3.5
	c0.1-1.2-0.5-2.5-1.5-3.2c-1.4-0.9-2.9-1.5-4.6-1.9c-1.2-0.2-2.5-0.6-3.6-1.4c-0.6-0.5-0.9-1.2-0.9-1.9c0-0.8,0.4-1.6,1-2.1
	c0.9-0.7,2-1,3.1-0.9c1.2-0.1,2.3,0.3,3.2,1.1c0.8,0.6,1.2,1.5,1.2,2.5h1.8v-0.1c0.1-1.4-0.5-2.7-1.6-3.6c-1.3-1-2.9-1.5-4.6-1.5
	c-1.5-0.1-3.1,0.4-4.4,1.4c-1.1,0.8-1.6,2-1.6,3.3c-0.1,1.2,0.5,2.4,1.5,3.1c1.4,0.9,2.9,1.5,4.6,1.8c1.3,0.2,2.5,0.7,3.6,1.5
	c0.6,0.5,1,1.3,1,2.1C206,259.4,205.6,260.2,204.9,260.7z M221.9,262.6c0.9-0.4,1.8-0.9,2.5-1.6l-0.8-1.3c-0.6,0.6-1.3,1.1-2.2,1.4
	c-1,0.4-2,0.5-3,0.5c-1.5,0.1-3.1-0.7-4-1.9c-1.1-1.4-1.6-3.1-1.5-4.9v-0.4h12v-1.6c0.1-1.9-0.5-3.9-1.8-5.3c-1.3-1.4-3.1-2.1-4.9-2
	c-2,0-3.9,0.8-5.1,2.4c-1.5,1.7-2.2,3.9-2.1,6.1v0.8c-0.1,2.2,0.7,4.3,2.2,6c1.3,1.5,3.3,2.4,5.3,2.4
	C219.6,263.2,220.8,263,221.9,262.6L221.9,262.6z M221.7,248.5c0.8,1,1.4,2.4,1.3,3.7v0.5h-10v-0.1c0.1-1.5,0.7-2.9,1.6-4
	c1.8-2,4.8-2.2,6.8-0.4C221.5,248.3,221.6,248.4,221.7,248.5L221.7,248.5z M237.1,245.6c-0.2-0.1-0.4-0.1-0.5-0.2
	c-0.2,0-0.5-0.1-0.7-0.1c-1.1,0-2.1,0.3-2.9,0.8c-0.8,0.6-1.5,1.5-2,2.5v-0.2l-0.2-2.9h-1.6v17.2h1.9V251c0.2-1.1,0.8-2,1.6-2.8
	c0.8-0.7,1.9-1.1,2.9-1l1.4,0.1L237.1,245.6z M264.5,251.9h-8v1.6h6.1v6c-0.6,0.6-1.4,1.2-2.2,1.4c-1.2,0.5-2.5,0.7-3.9,0.6
	c-2,0.1-3.9-0.8-5.2-2.3c-1.4-1.6-2.1-3.8-2-5.9V249c-0.1-2.1,0.6-4.1,1.9-5.8c1.2-1.5,3.1-2.3,5-2.2c1.6-0.2,3.2,0.4,4.5,1.5
	c1.1,1,1.7,2.3,1.9,3.8h1.8v-0.1c-0.2-1.9-1-3.6-2.4-4.9c-1.4-1.2-3.3-1.9-5.8-1.9c-2.4-0.1-4.7,0.9-6.3,2.7
	c-1.7,1.9-2.5,4.4-2.5,6.9v4.2c-0.1,2.6,0.8,5.2,2.5,7.1c1.7,1.9,4.1,2.9,6.6,2.7c1.8,0.1,3.6-0.3,5.2-1c1.1-0.5,2.1-1.2,2.9-2.1
	L264.5,251.9L264.5,251.9z M281.2,262.9h1.7v-17.1H281v12.2c-0.3,1.1-0.9,2-1.8,2.7c-1,0.7-2.2,1-3.4,1c-1.2,0.1-2.3-0.5-3-1.4
	c-0.7-0.9-1.1-2.4-1.1-4.5v-10h-1.9v10c0,2.5,0.5,4.5,1.5,5.7c1.1,1.2,2.6,1.9,4.2,1.9c1.2,0,2.3-0.2,3.3-0.8
	c0.9-0.5,1.7-1.4,2.2-2.3L281.2,262.9z M289.8,245.7h-1.9v17.1h1.9V245.7z M289.8,238.2h-1.9v2.6h1.9V238.2z M294.6,254.7
	c-0.1,2.2,0.5,4.3,1.7,6.1c1.2,1.5,2.9,2.4,4.8,2.3c1.1,0,2.2-0.2,3.2-0.7c0.9-0.5,1.7-1.2,2.2-2.1l0.2,2.5h1.7v-24.7h-1.9v10.2
	c-0.5-0.8-1.3-1.6-2.2-2.2c-0.9-0.5-2-0.8-3.1-0.8c-1.9-0.1-3.8,0.8-4.9,2.5c-1.2,1.9-1.9,4.2-1.7,6.6L294.6,254.7L294.6,254.7z
	 M296.5,254.4c-0.1-1.9,0.4-3.7,1.2-5.3c0.8-1.3,2.2-2.2,3.8-2.1c1.1-0.1,2.2,0.3,3.1,0.9c0.8,0.6,1.5,1.5,1.9,2.4v8.1
	c-0.4,0.9-1.1,1.7-1.9,2.3c-0.9,0.5-2,0.8-3.1,0.8c-1.5,0.1-2.9-0.6-3.7-1.9c-0.9-1.5-1.3-3.2-1.2-4.9V254.4L296.5,254.4z
	 M323.1,262.6c0.9-0.4,1.8-0.9,2.5-1.6l-0.8-1.3c-0.6,0.6-1.3,1.1-2.2,1.4c-1,0.4-2,0.5-3,0.5c-1.5,0.1-3.1-0.7-4-1.9
	c-1.1-1.4-1.6-3.1-1.5-4.9v-0.4h12v-1.6c0.1-1.9-0.5-3.9-1.8-5.3c-1.3-1.4-3.1-2.1-4.9-2c-2,0-3.9,0.8-5.1,2.4
	c-1.5,1.7-2.2,3.9-2.1,6.1v0.8c-0.1,2.2,0.7,4.3,2.2,6c1.3,1.5,3.3,2.4,5.3,2.4C320.7,263.2,321.9,263,323.1,262.6z M322.8,248.5
	c0.8,1,1.4,2.4,1.3,3.7v0.5h-10v-0.1c0.1-1.5,0.7-2.9,1.6-4c1.8-2,4.8-2.2,6.8-0.4C322.7,248.3,322.8,248.4,322.8,248.5L322.8,248.5
	z M191.9,200.6c0.1-2.6-0.8-5.1-2.6-7c-1.8-1.9-4.2-2.9-6.8-2.8c-2.5-0.1-4.9,0.9-6.6,2.8c-1.7,1.9-2.6,4.5-2.5,7v4.1
	c-0.1,2.5,0.8,5.1,2.5,7c1.7,1.9,4.1,2.9,6.6,2.8c2.5,0.1,5-0.9,6.8-2.8c1.8-1.9,2.7-4.4,2.6-7V200.6L191.9,200.6z M188.8,204.7
	c0.1,1.9-0.5,3.8-1.7,5.2c-1.2,1.3-2.9,2.1-4.6,2c-1.7,0.1-3.3-0.7-4.3-2c-1.2-1.5-1.7-3.3-1.6-5.2v-4.2c-0.1-1.9,0.5-3.7,1.6-5.2
	c1-1.3,2.6-2.1,4.3-2c1.8-0.1,3.5,0.7,4.6,2c1.2,1.5,1.8,3.3,1.7,5.2V204.7L188.8,204.7z M198.5,197.1H195l5.6,8.5l-5.7,8.6h3.6
	l3.8-6.5l3.8,6.5h3.6l-5.7-8.6l5.6-8.5h-3.6l-3.6,6.3L198.5,197.1z M214.1,197.1h-3.5l6.3,16.8l-0.8,1.8c-0.3,0.7-0.6,1.4-1.1,1.9
	c-0.4,0.5-1,0.9-1.6,0.8c-0.1,0-0.4,0-0.8-0.1c-0.2,0-0.4,0-0.5,0l-0.3,2.5c0.2,0.1,0.5,0.1,0.9,0.2c0.3,0.1,0.6,0.1,0.9,0.1
	c1.2,0.1,2.4-0.4,3.2-1.3c0.8-0.8,1.5-1.9,1.9-3l7.2-19.8h-3.3l-4.2,13h-0.1l-0.5-2.2L214.1,197.1z M228.1,206.3
	c-0.1,2.2,0.5,4.2,1.8,5.9c1.2,1.5,3,2.4,4.9,2.3c0.9,0,1.9-0.2,2.7-0.5c0.8-0.4,1.5-0.9,2-1.6v1.9c0.1,1.2-0.3,2.3-1,3.2
	c-0.9,0.8-2.1,1.2-3.3,1c-0.8,0-1.5-0.1-2.3-0.3c-0.7-0.2-1.4-0.4-2-0.8l-0.8,2.4c0.8,0.4,1.6,0.7,2.5,0.9c0.8,0.2,1.8,0.3,2.6,0.3
	c2.4,0,4.2-0.6,5.5-1.8c1.3-1.3,2-3.2,1.9-5.1v-17.2h-2.5l-0.4,2.2c-0.5-0.8-1.2-1.5-2.1-1.9c-0.8-0.5-1.9-0.7-2.9-0.7
	c-2-0.1-3.9,0.9-4.9,2.5c-1.3,2-1.9,4.3-1.8,6.6L228.1,206.3L228.1,206.3z M231.2,206c-0.1-1.7,0.3-3.3,1.1-4.8
	c0.7-1.2,1.9-1.9,3.3-1.9c0.8,0,1.6,0.2,2.3,0.6c0.6,0.5,1.2,1,1.5,1.7v8c-0.4,0.7-0.9,1.3-1.5,1.8c-0.7,0.5-1.5,0.7-2.3,0.6
	c-1.3,0.1-2.5-0.5-3.3-1.5c-0.8-1.2-1.2-2.7-1.1-4.2V206L231.2,206z M258,213.9c0.9-0.3,1.7-0.8,2.4-1.5l-1.2-2
	c-0.6,0.5-1.3,0.9-2.1,1.2c-0.9,0.3-1.9,0.5-2.8,0.5c-1.3,0.1-2.5-0.5-3.4-1.6c-0.8-1.2-1.3-2.6-1.2-4l0.1-0.1h11.1v-1.9
	c0.1-2-0.5-4-1.8-5.6c-1.2-1.4-2.9-2.1-5.2-2.1c-2,0-3.9,0.9-5.2,2.4c-1.5,1.7-2.2,3.9-2.2,6.1v0.7c-0.1,2.2,0.6,4.5,2.1,6.2
	c1.5,1.6,3.6,2.5,5.7,2.4C255.6,214.6,256.8,214.4,258,213.9L258,213.9z M256.8,200.5c0.7,0.8,1,1.9,1,3.1v0.4h-7.9v-0.1
	c0.2-1.2,0.6-2.4,1.4-3.3c0.6-0.8,1.6-1.3,2.7-1.3C255,199.2,256,199.6,256.8,200.5L256.8,200.5z M264.2,197.1v17.1h3.1v-12.5
	c0.4-0.7,0.9-1.3,1.6-1.8c0.7-0.5,1.5-0.7,2.4-0.6c1-0.1,2,0.2,2.7,0.9c0.6,0.6,0.9,1.7,0.9,3.2v10.7h3.1v-10.8c0-2.2-0.5-3.9-1.5-5
	c-1.2-1.2-2.7-1.7-4.2-1.6c-1,0-2,0.2-2.9,0.8c-0.8,0.5-1.6,1.2-2.2,2.1l-0.2-2.5L264.2,197.1L264.2,197.1z M293.2,191.1h-3.7
	l7.3,11.4l-7.5,11.7h3.8l5.6-9.2l5.5,9.2h3.7l-7.5-11.7l7.3-11.4h-3.8l-5.4,9L293.2,191.1z M311.9,191.1v23.1h3.1v-9.1l-0.3-9.3h0.1
	l7.4,18.5h2.1l7.5-18.5h0.1l-0.3,9.3v9.2h3.1v-23.1h-3.9l-7.3,18.8h-0.1l-7.3-18.8H311.9L311.9,191.1z M343.6,191.1h-3.1v23.1h14
	v-2.5h-10.9V191.1L343.6,191.1z M379.7,201.1h-10.6v-7.5h12v-2.5H366v23.1h15.3v-2.5h-12.1v-8.3h10.6L379.7,201.1L379.7,201.1z
	 M383.2,206.3c-0.1,2.2,0.5,4.2,1.8,5.9c1.2,1.5,3,2.4,4.9,2.2c1,0,1.9-0.2,2.9-0.6c0.8-0.5,1.5-1.1,2.1-1.9l0.4,2.1h2.5v-24.7h-3.1
	v9.4c-0.5-0.7-1.2-1.2-2-1.6c-0.8-0.4-1.8-0.5-2.6-0.5c-2-0.1-3.9,0.8-4.9,2.5c-1.2,2-1.9,4.3-1.8,6.6L383.2,206.3L383.2,206.3z
	 M386.3,206c-0.1-1.7,0.3-3.3,1.1-4.8c0.6-1.2,1.9-1.9,3.3-1.9c0.8,0,1.6,0.2,2.3,0.6c0.6,0.5,1.2,1,1.5,1.7v8
	c-0.4,0.7-0.9,1.3-1.5,1.8c-0.7,0.5-1.5,0.7-2.3,0.6c-1.3,0.1-2.5-0.5-3.3-1.5c-0.8-1.2-1.2-2.7-1.1-4.2V206L386.3,206z
	 M405.8,197.1h-3.1v17.1h3.1V197.1L405.8,197.1z M405.8,189.5h-3.1v3.2h3.1V189.5z M411.9,193v4.2h-2.7v2.3h2.7v10.4
	c-0.1,1.3,0.3,2.6,1.2,3.6c0.8,0.8,1.9,1.2,3,1.2c0.5,0,0.9-0.1,1.4-0.2c0.4-0.1,0.7-0.2,1-0.5l-0.4-2.2c-0.2,0.1-0.4,0.2-0.5,0.2
	c-0.2,0.1-0.4,0.1-0.6,0.1c-0.5,0-0.9-0.2-1.3-0.5c-0.4-0.5-0.5-1.1-0.5-1.7v-10.4h3.2v-2.3h-3.2v-4.2L411.9,193L411.9,193z
	 M421,205.9c-0.1,2.2,0.6,4.5,2.1,6.3c2.9,3.1,7.7,3.2,10.8,0.4c0.2-0.2,0.3-0.2,0.4-0.4c1.4-1.8,2.2-4,2.1-6.3v-0.4
	c0.1-2.2-0.6-4.5-2.1-6.3c-2.9-3.1-7.6-3.3-10.7-0.5c-0.2,0.2-0.3,0.3-0.5,0.5c-1.4,1.8-2.2,4-2.1,6.3V205.9L421,205.9z
	 M424.1,205.5c-0.1-1.5,0.3-3.2,1.2-4.5c0.7-1.2,2-1.9,3.4-1.8c1.4-0.1,2.7,0.6,3.4,1.8c0.8,1.3,1.2,2.9,1.2,4.5v0.4
	c0.1,1.5-0.3,3.2-1.2,4.5c-1.3,1.9-3.9,2.3-5.8,1c-0.4-0.3-0.8-0.6-1-1c-0.8-1.4-1.2-2.9-1.2-4.5L424.1,205.5L424.1,205.5z
	 M448.8,196.9c-0.2-0.1-0.3-0.1-0.5-0.2c-0.2,0-0.5-0.1-0.7-0.1c-0.8,0-1.7,0.2-2.5,0.8c-0.8,0.5-1.4,1.2-1.8,2.1l-0.3-2.5h-2.8
	v17.1h3.1v-12.3c0.2-0.7,0.7-1.2,1.3-1.6c0.6-0.4,1.3-0.6,2.1-0.6l1.6,0.1L448.8,196.9z M467.3,191.1l-7.8,0.8v2.2l4.7-0.1v20.1h3.1
	V191.1L467.3,191.1z M489.1,192.5c-1.4-1.2-3.2-1.7-4.9-1.6c-1.8-0.1-3.6,0.5-4.9,1.6c-1.3,1.2-2,2.9-1.9,4.7c0,1.2,0.3,2.2,1,3.2
	c0.7,0.9,1.6,1.6,2.7,2c-1.2,0.4-2.3,1.2-3.2,2.2c-0.8,1-1.2,2.2-1.2,3.4c-0.2,1.9,0.6,3.7,2.1,4.9c3.2,2.2,7.6,2.2,10.8,0
	c1.4-1.2,2.2-3,2.1-4.9c0-1.2-0.4-2.5-1.2-3.4c-0.8-1-1.9-1.8-3.2-2.2c1.1-0.4,2-1.1,2.7-2c0.7-0.9,1-2,1-3.2
	C491.1,195.4,490.4,193.7,489.1,192.5L489.1,192.5z M487.4,211c-1.9,1.5-4.5,1.5-6.3,0c-0.8-0.8-1.2-1.9-1.2-3.1
	c-0.1-2.3,1.7-4.2,3.9-4.3c0.2,0,0.2,0,0.4,0c1.2-0.1,2.3,0.4,3.2,1.2c0.8,0.8,1.3,1.9,1.2,3.1C488.7,209,488.2,210.2,487.4,211z
	 M486.9,200.1c-1.5,1.4-3.9,1.4-5.4,0c-0.7-0.8-1.1-1.8-1-2.8c-0.1-1.1,0.3-2.1,1-2.9c1.5-1.5,3.9-1.5,5.4,0.1
	c0.7,0.8,1.1,1.8,1.1,2.9C488,198.3,487.6,199.3,486.9,200.1L486.9,200.1z M499.2,211h-3.1v3.2h3.1V211L499.2,211z M512.8,191.1
	L505,192v2.2l4.7-0.1v20.1h3.1V191.1L512.8,191.1z"/>

</svg>
