<?xml version="1.0" encoding="utf-8"?>
<!-- Generator: Adobe Illustrator 24.0.1, SVG Export Plug-In . SVG Version: 6.00 Build 0)  -->
<svg version="1.1" id="Author" xmlns="http://www.w3.org/2000/svg" xmlns:xlink="http://www.w3.org/1999/xlink" x="0px" y="0px"
	 viewBox="0 0 50 50" style="enable-background:new 0 0 50 50;" xml:space="preserve">
<style type="text/css">
	.st0{fill:url(#Pillow_1_);stroke:#FFFFFF;stroke-width:0.5;}
	.st1{fill:#FFFFFF;}
	.st2{fill:#FF451D;}
</style>
<linearGradient id="Pillow_1_" gradientUnits="userSpaceOnUse" x1="25" y1="-755.6601" x2="25" y2="-707.5599" gradientTransform="matrix(1 0 0 -1 0 -706.61)">
	<stop  offset="0" style="stop-color:#BB2712"/>
	<stop  offset="1" style="stop-color:#DE4F33"/>
</linearGradient>
<path id="Pillow" class="st0" d="M10.8,1h28.4c5.4,0,9.8,4.4,9.8,9.8v28.4c0,5.4-4.4,9.8-9.8,9.8H10.8C5.4,49,1,44.6,1,39.2V10.8
	C1,5.4,5.4,1,10.8,1z"/>
<path id="WhiteStroke" class="st1" d="M29.5,4.7h-8.4l-13.3,33l0.4,8.9l6.4-6.1l2.7-6.8h14.6l2.8,7.7h9.7L29.5,4.7z M20.3,26.2
	l4.4-11l4.3,11H20.3z"/>
<path id="A-black_3_" d="M30.5,27.2l-5.3-13.5l2.5-6l-5.4-2h6.5l14.1,34.7h-7.5l-2.8-7.7H17.9l2.2-5.5H30.5z"/>
<path id="Pen" class="st2" d="M21.5,6.4l-1.4,3.4l4.9,2l1.4-3.4L21.5,6.4z M8.9,44.7l4.7-4.7l-4.9-2L8.9,44.7z M9.2,37l4.9,2
	l10.6-26.3l-4.9-2L9.2,37z"/>
</svg>
