<?xml version="1.0" encoding="utf-8"?>
<!-- Generator: Adobe Illustrator 22.1.0, SVG Export Plug-In . SVG Version: 6.00 Build 0)  -->
<svg version="1.1" id="Layer_1" xmlns="http://www.w3.org/2000/svg" xmlns:xlink="http://www.w3.org/1999/xlink" x="0px" y="0px"
	 width="595.3pt" height="841.9pt" viewBox="0 0 595.3 841.9" style="enable-background:new 0 0 595.3 841.9;" xml:space="preserve"
	>
<style type="text/css">
	.Drop_x0020_Shadow{fill:none;}
	.Round_x0020_Corners_x0020_2_x0020_pt{fill:#FFFFFF;stroke:#231F20;stroke-miterlimit:10;}
	.Live_x0020_Reflect_x0020_X{fill:none;}
	.Bevel_x0020_Soft{fill:url(#SVGID_1_);}
	.Dusk{fill:#FFFFFF;}
	.Foliage_GS{fill:#FFDD00;}
	.Pompadour_GS{fill-rule:evenodd;clip-rule:evenodd;fill:#44ACE1;}
	.st0{fill:#66738C;}
	.st1{fill:#69768E;}
	.st2{fill:#8691A4;}
	.st3{fill:#78849A;}
	.st4{fill:#9099AB;}
	.st5{fill:#828CA1;}
	.st6{fill:#748097;}
	.st7{fill:#6F7B93;}
	.st8{fill:url(#Pillow_2_);stroke:#FFFFFF;stroke-width:0.75;}
	.st9{fill:#F72F09;}
</style>
<linearGradient id="SVGID_1_" gradientUnits="userSpaceOnUse" x1="0" y1="0" x2="0.7071" y2="0.7071">
	<stop  offset="0" style="stop-color:#DEDFE3"/>
	<stop  offset="0.1783" style="stop-color:#DADBDF"/>
	<stop  offset="0.3611" style="stop-color:#CECFD3"/>
	<stop  offset="0.546" style="stop-color:#B9BCBF"/>
	<stop  offset="0.7324" style="stop-color:#9CA0A2"/>
	<stop  offset="0.9181" style="stop-color:#787D7E"/>
	<stop  offset="1" style="stop-color:#656B6C"/>
</linearGradient>
<rect id="Background" class="st0" width="595.5" height="841.9"/>
<path id="Polygon_1_copy_20" class="st1" d="M498.4,499.7H309.2l94.6,163.8L498.4,499.7z"/>
<path id="Polygon_1_copy_21" class="st1" d="M694.4,499.7H505.2l94.6,163.8L694.4,499.7z"/>
<path id="Polygon_1_copy_26" class="st2" d="M595.1,668.6H405.8l94.6-163.8L595.1,668.6z"/>
<path id="Polygon_1_copy_24" class="st3" d="M403.1,671.8H213.9l94.6,163.8L403.1,671.8z"/>
<path id="Polygon_1_copy_25" class="st4" d="M593.2,671.8H404l94.6,163.8L593.2,671.8z"/>
<path id="Polygon_1_copy_32" class="st5" d="M498.2,840.3H308.9l94.6-163.8L498.2,840.3z"/>
<path id="Polygon_1_copy_35" class="st5" d="M689.5,840.3H500.2l94.6-163.8L689.5,840.3z"/>
<path id="Polygon_1_copy_37" class="st6" d="M690.7,497.7H501.5L596.1,334L690.7,497.7z"/>
<path id="Polygon_1_copy_45" class="st7" d="M308.2,840.3H118.9l94.6-163.8L308.2,840.3z"/>

</svg>
