<?xml version="1.0" encoding="utf-8"?>
<!-- Generator: Adobe Illustrator 24.0.1, SVG Export Plug-In . SVG Version: 6.00 Build 0)  -->
<svg version="1.1" id="Developer" xmlns="http://www.w3.org/2000/svg" xmlns:xlink="http://www.w3.org/1999/xlink" x="0px" y="0px"
	 viewBox="0 0 50 50" style="enable-background:new 0 0 50 50;" xml:space="preserve">
<style type="text/css">
	.st0{fill:url(#Pillow_1_);stroke:#FFFFFF;stroke-width:0.5;}
	.st1{fill:#FFFFFF;}
	.st2{fill:#F72F09;}
</style>
<linearGradient id="Pillow_1_" gradientUnits="userSpaceOnUse" x1="25" y1="-755.5501" x2="25" y2="-707.4499" gradientTransform="matrix(1 0 0 -1 0 -706.5)">
	<stop  offset="0" style="stop-color:#646F87"/>
	<stop  offset="1" style="stop-color:#94A0B5"/>
</linearGradient>
<path id="Pillow" class="st0" d="M10.8,1h28.4c5.4,0,9.8,4.4,9.8,9.8v28.4c0,5.4-4.4,9.8-9.8,9.8H10.8C5.4,49,1,44.6,1,39.2V10.8
	C1,5.4,5.4,1,10.8,1z"/>
<g id="Symbol">
	<polygon class="st1" points="16.5,44 31.9,25.6 19.4,6 24.3,6 45,26.5 22.2,44 	"/>
	<polygon class="st2" points="18.6,43 33.1,25.7 21.2,7 23.9,7 43.5,26.4 21.9,43 	"/>
	<polygon class="st1" points="8.1,43.9 13.5,6 20.8,6 15.4,43.9 	"/>
	<polygon points="9.3,42.9 14.4,7 19.6,7 14.5,42.9 	"/>
</g>
</svg>
