<?xml version="1.0" encoding="utf-8"?>
<!-- Generator: Adobe Illustrator 27.9.0, SVG Export Plug-In . SVG Version: 6.00 Build 0)  -->
<svg version="1.1" id="Triangles_" xmlns="http://www.w3.org/2000/svg" xmlns:xlink="http://www.w3.org/1999/xlink" x="0px" y="0px"
	 width="595.3pt" height="841.9pt" viewBox="0 0 816 1056" style="enable-background:new 0 0 816 1056;" xml:space="preserve">
<style type="text/css">
	.st0{fill:#777777;}
	.st1{fill:#7F7F7F;}
	.st2{fill:#939393;}
	.st3{fill:#898989;}
	.st4{fill:#A8A8A8;}
	.st5{fill:#848484;}
	.st6{fill:#7C7C7C;}
</style>
<rect id="Background" class="st0" width="816" height="1056"/>
<path id="Polygon_1_copy_20" class="st1" d="M690.2,612.8h-245l122.5,212.1L690.2,612.8z"/>
<path id="Polygon_1_copy_26" class="st2" d="M815.4,831.6H570.3l122.5-212.1L815.4,831.6z"/>
<path id="Polygon_1_copy_24" class="st3" d="M566.8,835.7H321.7l122.5,212.1L566.8,835.7z"/>
<path id="Polygon_1_copy_25" class="st4" d="M813,835.7H568l122.5,212.1L813,835.7z"/>
<path id="Polygon_1_copy_32" class="st5" d="M689.9,1053.9H444.8l122.5-212.1L689.9,1053.9z"/>
<polygon class="st5" points="816,399.3 816,610.2 694.2,610.2 "/>
<path id="Polygon_1_copy_45" class="st6" d="M443.8,1053.9H198.7l122.5-212.1L443.8,1053.9z"/>
<polygon class="st5" points="813.2,613.8 697,613.8 813.2,814.9 "/>
<polygon class="st2" points="816.8,844.7 815.1,841.8 692.6,1053.9 816.8,1053.9 "/>
</svg>
