<?xml version="1.0" encoding="utf-8"?>
<!-- Generator: Adobe Illustrator 27.9.0, SVG Export Plug-In . SVG Version: 6.00 Build 0)  -->
<svg version="1.1" id="Developer" xmlns="http://www.w3.org/2000/svg" xmlns:xlink="http://www.w3.org/1999/xlink" x="0px" y="0px"
	 viewBox="0 0 50 50" style="enable-background:new 0 0 50 50;" xml:space="preserve">
<style type="text/css">
	.st0{fill:url(#Pillow_00000181049004941451808360000016882930882661445531_);stroke:#FFFFFF;stroke-width:0.75;}
	.st1{fill:#FF4019;}
	.st2{fill:#FFFFFF;}
</style>
<linearGradient id="Pillow_00000065760063281016073040000002232871705484796038_" gradientUnits="userSpaceOnUse" x1="25" y1="49" x2="25" y2="1">
	<stop  offset="0" style="stop-color:#777777"/>
	<stop  offset="1" style="stop-color:#A0A0A0"/>
</linearGradient>
<path id="Pillow" style="fill:url(#Pillow_00000065760063281016073040000002232871705484796038_);stroke:#FFFFFF;stroke-width:0.75;" d="
	M10.8,1h28.4c5.4,0,9.8,4.4,9.8,9.8v28.4c0,5.4-4.4,9.8-9.8,9.8H10.8C5.4,49,1,44.6,1,39.2V10.8C1,5.4,5.4,1,10.8,1z"/>
<g>
	<path class="st1" d="M25,43.4c-3.8,0-6.8-1-8.9-2.9c-2.1-1.9-3.2-4.7-3.2-8.1v-0.5H20v0.5c0,1.7,0.4,3,1.2,3.9
		c0.8,0.8,2.1,1.3,3.7,1.3c1.5,0,2.7-0.5,3.6-1.5c1-1.1,1.5-2.5,1.5-4.2V6.5h7.1v25.4c0,3.4-1.1,6.3-3.4,8.4
		C31.4,42.3,28.5,43.4,25,43.4z"/>
	<path class="st2" d="M36.6,7v24.9c0,3.4-1.2,6-3.3,8c-2.1,2-4.9,3-8.3,3c-3.7,0-6.5-0.9-8.5-2.8c-2-1.9-3-4.4-3-7.7h6.1
		c0,1.9,0.5,3.3,1.4,4.2c0.9,0.9,2.3,1.4,4,1.4c1.6,0,3-0.5,3.9-1.6c1-1.1,1.6-2.6,1.6-4.5V7H36.6 M37.6,6h-1h-6.1h-1v1v24.8
		c0,1.6-0.4,2.9-1.3,3.8C27.4,36.5,26.3,37,25,37c-1.5,0-2.6-0.4-3.3-1.1c-0.7-0.7-1.1-1.9-1.1-3.5v-1h-1h-6.1h-1v1
		c0,3.6,1.1,6.4,3.3,8.5c2.2,2,5.3,3,9.2,3c3.7,0,6.7-1.1,9-3.2c2.4-2.2,3.6-5.2,3.6-8.8V7V6L37.6,6z"/>
</g>
</svg>
