<?xml version="1.0" encoding="utf-8"?>
<!-- Generator: Adobe Illustrator 27.9.0, SVG Export Plug-In . SVG Version: 6.00 Build 0)  -->
<svg version="1.1" id="Layer_1" xmlns="http://www.w3.org/2000/svg" xmlns:xlink="http://www.w3.org/1999/xlink" x="0px" y="0px"
	 width="595.3pt" height="841.9pt" viewBox="0 0 595.3 841.9" style="enable-background:new 0 0 595.3 841.9;" xml:space="preserve">
<style type="text/css">
	.st0{fill:#777777;}
	.st1{fill:#7F7F7F;}
	.st2{fill:#939393;}
	.st3{fill:#898989;}
	.st4{fill:#A8A8A8;}
</style>

<rect id="Background" class="st0" width="595.5" height="841.9"/>
<path id="Polygon_1_copy_20" class="st1" d="M498.4,499.7H309.2l94.6,163.8L498.4,499.7z"/>
<path id="Polygon_1_copy_21" class="st0" d="M694.4,499.7H505.2l94.6,163.8L694.4,499.7z"/>
<path id="Polygon_1_copy_26" class="st2" d="M595.1,668.6H405.8l94.6-163.8L595.1,668.6z"/>
<path id="Polygon_1_copy_24" class="st1" d="M403.1,671.8H213.9l94.6,163.8L403.1,671.8z"/>
<path id="Polygon_1_copy_25" class="st3" d="M593.2,671.8H404l94.6,163.8L593.2,671.8z"/>
<path id="Polygon_1_copy_32" class="st4" d="M498.2,840.3H308.9l94.6-163.8L498.2,840.3z"/>
<path id="Polygon_1_copy_35" class="st1" d="M689.5,840.3H500.2l94.6-163.8L689.5,840.3z"/>
<path id="Polygon_1_copy_37" class="st1" d="M690.7,497.7H501.5L596.1,334L690.7,497.7z"/>
<path id="Polygon_1_copy_45" class="st4" d="M308.2,840.3H118.9l94.6-163.8L308.2,840.3z"/>
</svg>
