<?xml version="1.0" encoding="utf-8"?>
<!-- Generator: Adobe Illustrator 24.0.1, SVG Export Plug-In . SVG Version: 6.00 Build 0)  -->
<svg version="1.1" id="XMLEditor" xmlns="http://www.w3.org/2000/svg" xmlns:xlink="http://www.w3.org/1999/xlink" x="0px" y="0px"
	 viewBox="0 0 50 50" style="enable-background:new 0 0 50 50;" xml:space="preserve">
<style type="text/css">
	.st0{fill:url(#Pillow_1_);stroke:#FFFFFF;stroke-width:0.5;}
	.st1{fill:#FFFFFF;}
	.st2{fill:#FF3209;}
</style>
<linearGradient id="Pillow_1_" gradientUnits="userSpaceOnUse" x1="24.95" y1="-701.11" x2="24.95" y2="-653.11" gradientTransform="matrix(1 0 0 -1 0 -652.11)">
	<stop  offset="0" style="stop-color:#255CD1"/>
	<stop  offset="1" style="stop-color:#5087E5"/>
</linearGradient>
<path id="Pillow" class="st0" d="M10.8,1h28.3c5.4,0,9.8,4.4,9.8,9.8v28.3c0,5.4-4.4,9.8-9.8,9.8H10.8C5.4,49,1,44.6,1,39.2V10.8
	C1,5.4,5.4,1,10.8,1z"/>
<path id="WhiteStroke" class="st1" d="M12.1,46.3c-0.1,0-0.2,0-0.4-0.1c-0.3-0.1-0.5-0.5-0.5-0.8c0-0.6,2-5.1,3.2-7.7
	c1.4-3.2,3-6.8,4.9-10.9c0.8-1.7,1.6-3.4,2.4-5.2L11.1,5.5L18.5,4c0,0,2.5,4.7,3.6,6.9c0.9,1.9,2,4,3.2,6.5c0.4-0.7,0.9-1.5,1.5-2.5
	c0.5-0.9,1.1-1.8,1.8-2.9c2-3.2,3.5-5.6,4.7-6.9c0.2-0.2,0.4-0.3,0.7-0.3c0.1,0,0.3,0,0.4,0.1C34.8,5.1,35,5.6,34.9,6
	c-0.7,2.3-1.3,4.3-1.8,6c-0.6,1.9-1.1,3.5-1.5,4.8c-0.6,2-1.2,4-1.9,6.2l13.2,12.6l-8.1,5.1c0,0-3.4-4.9-4.6-6.7l-1.3-1.9
	c-0.8-1.1-1.4-2-1.9-2.8c-0.2-0.3-0.4-0.6-0.6-0.9c-3.4,5-6,8.7-8,11.3c-2.2,2.9-4,5-5.5,6.3C12.5,46.2,12.3,46.3,12.1,46.3z"/>
<path id="X" class="st2" d="M41.4,35.4L35,39.5c-2.1-3-3.9-5.6-5.5-7.9s-2.7-3.8-3.3-4.7c-3.7,5.5-6.6,9.6-8.7,12.3
	s-3.9,4.8-5.4,6.2c0-0.2,1-2.7,3.1-7.3c2-4.6,4.6-10.2,7.5-16.6L12.6,6.1L18,5c1.1,2,2.2,4.1,3.3,6.3c1.1,2.2,2.4,4.8,3.9,7.9
	c0.8-1.2,2.2-3.5,4.2-6.7S32.9,7,34,5.7c-1.5,4.8-2.5,8.4-3.3,10.8c-0.7,2.4-1.4,4.6-2.1,6.7L41.4,35.4z"/>
</svg>
