<?xml version="1.0" encoding="utf-8"?>
<!-- Generator: Adobe Illustrator 24.1.1, SVG Export Plug-In . SVG Version: 6.00 Build 0)  -->
<svg version="1.1" id="OPE" xmlns="http://www.w3.org/2000/svg" xmlns:xlink="http://www.w3.org/1999/xlink" x="0px" y="0px"
	 viewBox="0 0 50 50" style="enable-background:new 0 0 50 50;" xml:space="preserve">
<style type="text/css">
	.st0{fill:url(#Pillow_1_);stroke:#FFFFFF;stroke-width:0.5;}
	.st1{fill-rule:evenodd;clip-rule:evenodd;fill:#FFFFFF;}
</style>
<linearGradient id="Pillow_1_" gradientUnits="userSpaceOnUse" x1="24.9987" y1="1655.6588" x2="24.9987" y2="1607.5586" gradientTransform="matrix(1 0 0 1 0 -1606.61)">
	<stop  offset="0" style="stop-color:#5B8617"/>
	<stop  offset="1" style="stop-color:#79B123"/>
</linearGradient>
<path id="Pillow" class="st0" d="M10.8,1h28.4c5.4,0,9.8,4.4,9.8,9.8v28.4c0,5.4-4.4,9.8-9.8,9.8H10.8C5.4,49,1,44.6,1,39.2V10.8
	C1,5.4,5.4,1,10.8,1z"/>
<path id="Symbol" class="st1" d="M37.6,39.4v-28l6.2-2v31.6L37.6,39.4z M36,42.5c-4.1-0.5-10.9-5.7-10.9-5.7l0-23.2
	c0,0,6.7-5.7,11-6.1C36,13.6,36,42.5,36,42.5z M6.1,9.5l17.3,4.1v23.4L6.1,41V9.5z M7.9,26.3c0,0.3,0.2,0.5,0.5,0.5c0,0,0.4,0,0.6,0
	c0.2,0,1,0.3,1,0.3l0,0c0.1,0.6,0.4,1.2,0.7,1.7c0,0-0.2,0.7-0.5,1c-0.2,0.2-0.4,0.5-0.4,0.5c-0.2,0.2-0.2,0.5,0,0.7l1.2,1.2
	c0.2,0.2,0.5,0.1,0.6-0.1c0,0,0.2-0.3,0.4-0.5c0.2-0.2,0.8-0.6,0.8-0.6l0,0c0.5,0.3,0.9,0.4,1.4,0.5c0,0,0.3,0.6,0.3,0.9
	c0,0.2,0,0.6,0,0.6c0,0.3,0.2,0.4,0.4,0.4l1.4-0.2c0.2,0,0.4-0.3,0.4-0.5c0,0,0-0.3,0-0.6c0-0.2,0.3-0.9,0.3-0.9v0
	c0.4-0.2,0.9-0.5,1.2-0.8l0,0c0,0,0.5,0.2,0.7,0.4c0.1,0.1,0.3,0.3,0.3,0.3c0.1,0.2,0.4,0.1,0.5-0.1l0.9-1.2c0.1-0.2,0.1-0.4,0-0.6
	c0,0-0.2-0.2-0.3-0.3c-0.1-0.1-0.3-0.8-0.3-0.8s0.2-0.2,0.5-1.5l0,0c0,0,0.5-0.3,0.6-0.3c0.2,0,0.4,0,0.4,0c0.2,0,0.3-0.2,0.3-0.4
	l0-1.5c0-0.2-0.1-0.4-0.3-0.4c0,0-0.2,0-0.4,0c-0.2,0-0.6-0.3-0.6-0.3s0-0.3-0.5-1.5l0,0c0,0,0.2-0.7,0.3-0.8
	c0.1-0.1,0.3-0.3,0.3-0.3c0.1-0.2,0.1-0.5,0-0.7l-0.9-1.2c-0.1-0.2-0.4-0.2-0.5,0c0,0-0.2,0.2-0.3,0.3c-0.1,0.1-0.7,0.4-0.7,0.4
	s-0.2-0.3-1.3-0.7v0c0,0-0.3-0.7-0.3-0.9c0-0.2,0-0.6,0-0.6c0-0.3-0.2-0.5-0.4-0.5L15,17.1c-0.2,0-0.4,0.2-0.4,0.4c0,0,0,0.3,0,0.6
	c0,0.2-0.3,0.9-0.3,0.9l-1.4,0.6c0,0-0.7-0.3-0.8-0.5c-0.2-0.2-0.4-0.5-0.4-0.5c-0.2-0.2-0.5-0.2-0.6-0.1l-1.2,1.2
	c-0.2,0.2-0.2,0.5,0,0.7c0,0,0.2,0.3,0.4,0.5c0.2,0.2,0.4,1,0.4,1l0,0c-0.3,0.5-0.5,1.1-0.7,1.7c0,0-0.6,0.4-1,0.4
	c-0.2,0-0.6,0-0.6,0c-0.3,0-0.5,0.2-0.5,0.5L7.9,26.3z M17.3,23.4c0.8,1,0.8,2.7,0,3.7c-0.9,1.1-2.3,1.2-3.3,0.2c-1-1.1-1-2.9,0-4
	C15,22.3,16.5,22.3,17.3,23.4z"/>
</svg>
