<?xml version="1.0" encoding="utf-8"?>
<!-- Generator: Adobe Illustrator 22.0.1, SVG Export Plug-In . SVG Version: 6.00 Build 0)  -->
<svg version="1.1" id="Chemistry_bubble" xmlns="http://www.w3.org/2000/svg" xmlns:xlink="http://www.w3.org/1999/xlink" x="0px" width="4in" height="4in"
	 y="0px" viewBox="0 0 491 491" style="enable-background:new 0 0 491 491;" xml:space="preserve">
<style type="text/css">
	.st0{fill:#67B8BE;}
	.st1{opacity:0.6;fill:url(#Shadow3_1_);enable-background:new    ;}
	.st2{opacity:0.8;fill:url(#Shadow2_1_);enable-background:new    ;}
	.st3{opacity:0.78;fill:url(#Shadow1_1_);enable-background:new    ;}
	.st4{fill:#626262;}
	.st5{fill:#B9E4ED;}
	.st6{fill:#F3722B;}
	.st7{fill:#96ABB0;}
	.st8{fill:#FFFFFF;stroke:#FFFFFF;stroke-linejoin:round;}
	.st9{fill:#31C204;}
	.st10{fill:#218004;}
	.st11{fill:#D83B34;}
	.st12{fill:#B12D27;}
	.st13{enable-background:new    ;}
	.st14{fill:#FFFFFF;}
</style>
<circle id="Circle" class="st0" cx="245.5" cy="245.5" r="245.5"/>
<linearGradient id="Shadow3_1_" gradientUnits="userSpaceOnUse" x1="365.8365" y1="219.177" x2="478.6853" y2="166.5546" gradientTransform="matrix(1 0 0 -1 0 492)">
	<stop  offset="0" style="stop-color:#599EA3"/>
	<stop  offset="0.6128" style="stop-color:#65B4BA"/>
	<stop  offset="1" style="stop-color:#67B8BE;stop-opacity:0"/>
</linearGradient>
<path id="Shadow3" class="st1" d="M489,275.7c-5.9,46.4-24.9,90.1-54.9,125.9l-84.9-93.1L379,247l45-44L489,275.7z"/>
<linearGradient id="Shadow2_1_" gradientUnits="userSpaceOnUse" x1="105.9724" y1="206.4496" x2="264.7583" y2="132.4065" gradientTransform="matrix(1 0 0 -1 0 492)">
	<stop  offset="0" style="stop-color:#599EA3"/>
	<stop  offset="0.9205" style="stop-color:#63B0B6;stop-opacity:0"/>
	<stop  offset="1" style="stop-color:#67B8BE;stop-opacity:0"/>
</linearGradient>
<path id="Shadow2" class="st2" d="M102.5,306L144,204l11-2l114,128l-45,117L102.5,306z"/>
<linearGradient id="Shadow1_1_" gradientUnits="userSpaceOnUse" x1="206.5305" y1="302.6306" x2="481.7523" y2="174.2925" gradientTransform="matrix(1 0 0 -1 0 492)">
	<stop  offset="0" style="stop-color:#599EA3"/>
	<stop  offset="0.6538" style="stop-color:#64B2B8;stop-opacity:0"/>
	<stop  offset="1" style="stop-color:#67B8BE;stop-opacity:0"/>
</linearGradient>
<path id="Shadow1" class="st3" d="M473,334.3l0.2,0.6c-12.3,31.4-31,60-54.8,83.9L210.2,181.5L240,120l25-34L473,334.3z"/>
<path id="Stativ" class="st4" d="M212,333H62c-1.1,0-2-0.9-2-2v-1c0-1.1,0.9-2,2-2h20V227c-1-0.7-1.7-1.8-1.9-3H68c-0.6,0-1-0.4-1-1
	s0.4-1,1-1h12.1c0.2-1.2,0.9-2.3,1.9-3v-18c0-1.1,0.9-2,2-2h1c1.1,0,2,0.9,2,2v17.4c1.5,0.7,2.6,2,2.9,3.6H165c0.6,0,1,0.4,1,1
	s-0.4,1-1,1H89.9c-0.3,1.6-1.4,2.9-2.9,3.6V328h125c1.1,0,2,0.9,2,2v1C214,332.1,213.1,333,212,333z"/>
<g id="Eprubeta3">
	<path class="st5" d="M346.8,241.4l0.1-31.8l-2.5-1.7v-4.2l1.7-1.7H423l1.7,1.7v4.2l-2.5,1.7l-0.1,31l-0.5,58.9
		c0.4,2.9-0.2,5.8-1.7,8.3c-1.5,2.3-4,3.8-6.7,4.2h-57.9c0,0-3,0.4-6.7-3.3c-2.1-2.1-1.7-7.5-1.7-7.5L346.8,241.4z"/>
	<path id="Shape_1_copy" class="st6" d="M350.8,235.1h67.5l-0.4,64.9c0.3,2.1-0.1,4.3-1.3,6.2c-1.1,1.7-3,2.8-5,3.1h-54.7
		c0,0-2.3,0.3-5-2.4c-1.6-1.6-1.2-5.5-1.2-5.5L350.8,235.1z"/>
	<path id="Shape_2_copy" class="st7" d="M409.3,235v-2h5.7v2H409.3z M409.3,230v-2h5.7v2H409.3z M409.3,240v-2h5.7v2H409.3z
		 M409.3,245v-2h5.7v2H409.3z M409.3,250v-2h5.7v2H409.3z M409.3,255v-2h5.7v2H409.3z M409.3,260v-2h5.7v2H409.3z M409.3,265v-2h5.7
		v2H409.3z M409.3,270v-2h5.7v2H409.3z M409.3,275v-2h5.7v2H409.3z"/>
	<path id="Adobe" class="st8" d="M366.7,290.4c-6.1,4.5-10.3,10.9-8.6,11.9l-1.5-0.7C355.7,300.5,357.6,295.1,366.7,290.4
		L366.7,290.4L366.7,290.4z M412,285.2c3.1-6.6-22.3-5.5-41,3.1C385.6,282.7,412.4,280.4,412,285.2L412,285.2z M384.5,269.3
		c-3.9-7.8-5.3-17.4-4-21.2c0.2-0.5,0.5-1,0.9-1.4c1.1,0.8,1.9,2,2,3.4c0.4-3.6-1.2-3.5-1.8-3.5h-1.1c-0.8,0-1.4,0.7-1.5,1.5
		c-1.2,4.5-0.1,13.5,3.4,21.3c0.3,0.1,0.7,0.1,1,0C383.8,269.5,384.2,269.4,384.5,269.3L384.5,269.3L384.5,269.3z M382.4,269.3
		c1.7,3.7,4.1,7.1,7.1,9.9c8,6.9,21.7,10,22.4,6.6c-3,1.5-13.8-2-21.1-7.8c-2.4-2.7-4.6-5.6-6.4-8.7H382.4z M380.2,271.2
		c2.2-6.5,3.3-13.2,3.3-20c-1.1,6.3-2.7,12.4-4.8,18.4c0.3,0,0.7,0.1,0.9,0.4c0.3,0.2,0.6,0.5,0.8,0.8L380.2,271.2z M380.5,270.5
		l-1.6-1.5c-0.1,0.4-4.2,9.9-4.4,10.3c-8.1,16.3-14,23.9-18,22.3l1.5,0.7c3.1,1.6,8.6-3.5,18.1-21.6c0.4-0.9,1.2-2.4,1.2-2.4
		L380.5,270.5z"/>
</g>
<g id="Eprubeta2">
	<path class="st5" d="M292.1,156.7c0,24.4-19.8,44.2-44.2,44.2s-44.2-19.8-44.2-44.2c0-19.8,13.2-37.2,32.2-42.6v-21h-2.5
		c-1.8,0-3.3-1.5-3.3-3.3l0,0v-0.5c0-1.8,1.5-3.3,3.3-3.3l0,0h28.7c1.8,0,3.3,1.5,3.3,3.3v0.5c0,1.8-1.5,3.3-3.3,3.3h-2.3v21.1
		C279,119.5,292.1,136.9,292.1,156.7z"/>
	<path id="Ellipse_1_copy" class="st9" d="M287.1,151.8c2.8,21.6-12.5,41.5-34.2,44.2c-21.6,2.8-41.5-12.5-44.2-34.2
		c-0.4-3.3-0.4-6.7,0-10.1h78.4V151.8z"/>
	<path class="st10" d="M238,162c2.8,0,5,2.2,5,5s-2.2,5-5,5s-5-2.2-5-5S235.2,162,238,162z M250,181c1.7,0,3,1.3,3,3s-1.3,3-3,3
		s-3-1.3-3-3S248.3,181,250,181z M254.5,134c1.9,0,3.5,1.6,3.5,3.5s-1.6,3.5-3.5,3.5s-3.5-1.6-3.5-3.5S252.6,134,254.5,134z
		 M239,127c1.7,0,3,1.3,3,3s-1.3,3-3,3s-3-1.3-3-3S237.3,127,239,127z M251,113c1.1,0,2,0.9,2,2s-0.9,2-2,2s-2-0.9-2-2
		S249.9,113,251,113z M264,148c2.8,0,5,2.2,5,5s-2.2,5-5,5s-5-2.2-5-5S261.2,148,264,148z"/>
	<path id="Rounded_Rectangle_2" class="st4" d="M231,98h34c1.1,0,2,0.9,2,2v7c0,1.1-0.9,2-2,2h-34c-1.1,0-2-0.9-2-2v-7
		C229,98.9,229.9,98,231,98z"/>
</g>
<g id="Eprubeta1">
	<path id="eprubeta" class="st5" d="M126.5,242.9v-33.1l-2.6-1.7v-4.3l1.7-1.7h29.3l1.7,1.7v4.3l-2.6,1.7v32.3l24.2,56.7
		c0.4,3-0.2,6-1.7,8.6c-1.6,2.4-4.1,3.9-6.9,4.3h-58.7c0,0-3.3,0.5-6.9-3.4s-1.7-7.7-1.7-7.7L126.5,242.9z"/>
	<path class="st11" d="M128.6,248.7l23.6-0.7l20.6,48.4c0.4,2.5-0.2,5.1-1.5,7.3c-1.3,2-3.5,3.4-5.9,3.7h-50.1c0,0-2.8,0.4-5.9-2.9
		s-1.5-6.6-1.5-6.6L128.6,248.7z"/>
	<path id="Rounded_Rectangle_2_copy" class="st4" d="M125,219h30c1.1,0,2,0.9,2,2v3c0,1.1-0.9,2-2,2h-30c-1.1,0-2-0.9-2-2v-3
		C123,219.9,123.9,219,125,219z"/>
	<path class="st12" d="M128,293c1.7,0,3,1.3,3,3s-1.3,3-3,3s-3-1.3-3-3S126.3,293,128,293L128,293z M147,274c2.5,0.3,4.3,2.5,4,5
		s-2.5,4.3-5,4c-2.3-0.2-4-2.2-4-4.5C142.1,275.9,144.4,273.9,147,274z M137,255c1.7,0,3,1.3,3,3s-1.3,3-3,3s-3-1.3-3-3
		S135.3,255,137,255z M145.5,236c1.4,0,2.5,1.1,2.5,2.5s-1.1,2.5-2.5,2.5s-2.5-1.1-2.5-2.5S144.1,236,145.5,236z"/>
</g>
<g class="st13">
	<path class="st14" d="M98.6,389.2l6.8-11.4h4.8l-9.2,14.5l9.4,14.7h-4.7l-7-11.6l-7,11.6h-4.8l9.4-14.7l-9.2-14.5h4.7L98.6,389.2z"
		/>
	<path class="st14" d="M120.2,377.8l9.3,23.7h0.1l9.3-23.7h5V407H140v-11.5l0.4-11.9l-0.1,0l-9.4,23.4h-2.6l-9.4-23.3l-0.1,0
		l0.4,11.8V407h-3.9v-29.1H120.2z"/>
	<path class="st14" d="M155.1,403.9h13.8v3.1h-17.7v-29.1h3.9V403.9z"/>
	<path class="st14" d="M193.4,391.3h8v3.6h-8v9.2h-3.9v-9.2h-8v-3.6h8v-8.5h3.9V391.3z"/>
	<path class="st14" d="M237.5,397.6l0,0.1c0.1,2.7-0.9,5-2.9,6.9c-2,1.8-4.6,2.8-7.8,2.8c-3.3,0-6-1.2-8.1-3.5
		c-2.1-2.3-3.1-5.3-3.1-8.9v-5.2c0-3.6,1-6.6,3.1-8.9c2.1-2.3,4.8-3.5,8.1-3.5c3.3,0,5.9,0.9,7.9,2.6c1.9,1.8,2.9,4.1,2.8,7l0,0.1
		h-3.8c0-2-0.6-3.7-1.8-4.8c-1.2-1.2-2.9-1.8-5.1-1.8c-2.2,0-4,0.9-5.3,2.7c-1.3,1.8-2,4-2,6.6v5.2c0,2.7,0.7,4.9,2,6.6
		c1.3,1.8,3.1,2.7,5.3,2.7c2.2,0,3.9-0.6,5.1-1.8c1.2-1.2,1.8-2.8,1.8-4.9H237.5z"/>
	<path class="st14" d="M258.7,399.7c0-1.3-0.5-2.4-1.5-3.3c-1-0.9-2.8-1.6-5.3-2.3c-3.1-0.7-5.5-1.8-7.2-3.3
		c-1.7-1.4-2.6-3.2-2.6-5.4c0-2.3,0.9-4.2,2.8-5.7c1.9-1.5,4.3-2.3,7.2-2.3c3.2,0,5.7,0.9,7.6,2.6c1.9,1.7,2.8,3.8,2.7,6.1l0,0.1
		h-3.8c0-1.7-0.6-3.1-1.7-4.1c-1.1-1.1-2.7-1.6-4.9-1.6c-2,0-3.5,0.4-4.5,1.3c-1,0.9-1.6,2-1.6,3.5c0,1.3,0.6,2.3,1.7,3.2
		c1.1,0.8,3,1.6,5.5,2.2c3.1,0.8,5.4,1.9,7,3.4s2.4,3.3,2.4,5.5c0,2.3-1,4.2-2.9,5.7c-1.9,1.4-4.4,2.1-7.5,2.1
		c-2.9,0-5.5-0.8-7.7-2.4c-2.2-1.6-3.3-3.7-3.3-6.3l0-0.1h3.8c0,1.9,0.7,3.3,2.1,4.3c1.4,1,3.1,1.5,5.1,1.5c2,0,3.6-0.4,4.7-1.3
		S258.7,401.1,258.7,399.7z"/>
	<path class="st14" d="M284.3,399.7c0-1.3-0.5-2.4-1.5-3.3c-1-0.9-2.8-1.6-5.3-2.3c-3.1-0.7-5.5-1.8-7.2-3.3
		c-1.7-1.4-2.6-3.2-2.6-5.4c0-2.3,0.9-4.2,2.8-5.7c1.9-1.5,4.3-2.3,7.2-2.3c3.2,0,5.7,0.9,7.6,2.6c1.9,1.7,2.8,3.8,2.7,6.1l0,0.1
		h-3.8c0-1.7-0.6-3.1-1.7-4.1c-1.1-1.1-2.7-1.6-4.9-1.6c-2,0-3.5,0.4-4.5,1.3c-1,0.9-1.6,2-1.6,3.5c0,1.3,0.6,2.3,1.7,3.2
		c1.1,0.8,3,1.6,5.5,2.2c3.1,0.8,5.4,1.9,7,3.4s2.4,3.3,2.4,5.5c0,2.3-1,4.2-2.9,5.7c-1.9,1.4-4.4,2.1-7.5,2.1
		c-2.9,0-5.5-0.8-7.7-2.4c-2.2-1.6-3.3-3.7-3.3-6.3l0-0.1h3.8c0,1.9,0.7,3.3,2.1,4.3c1.4,1,3.1,1.5,5.1,1.5c2,0,3.6-0.4,4.7-1.3
		S284.3,401.1,284.3,399.7z"/>
	<path class="st14" d="M320.3,390.5h-16.7v-3.3h16.7V390.5z M320.3,398.9h-16.7v-3.3h16.7V398.9z"/>
	<path class="st14" d="M341.4,395.3V407h-3.9v-29.1h11.2c3.1,0,5.5,0.8,7.2,2.4s2.6,3.7,2.6,6.3c0,2.7-0.9,4.8-2.6,6.4
		c-1.7,1.6-4.1,2.4-7.2,2.4H341.4z M341.4,392.2h7.2c2,0,3.5-0.5,4.4-1.6c1-1.1,1.5-2.4,1.5-4s-0.5-3-1.5-4c-1-1.1-2.5-1.6-4.4-1.6
		h-7.2V392.2z"/>
	<path class="st14" d="M363.7,407v-29.1h8.9c3.8,0,6.9,1.2,9.2,3.5c2.3,2.3,3.5,5.4,3.5,9.1v4c0,3.7-1.2,6.8-3.5,9.1
		c-2.3,2.3-5.4,3.5-9.2,3.5H363.7z M367.7,380.9v22.9h5c2.7,0,4.8-0.9,6.4-2.7c1.6-1.8,2.3-4,2.3-6.8v-4c0-2.7-0.8-5-2.3-6.8
		c-1.6-1.8-3.7-2.7-6.4-2.7H367.7z"/>
	<path class="st14" d="M408,394.1h-13.3V407h-3.9v-29.1H410v3.1h-15.3v10H408V394.1z"/>
</g>
<path id="Pipe" class="st14" d="M246,86v-6c0-4.4-3.6-8-8-8h-89c-4.4,0-8,3.6-8,8v122h-2V80c0-5.5,4.5-10,10-10h89
	c5.5,0,10,4.5,10,10v6H246z"/>
<path id="Pipe2" class="st14" d="M384,202v-90c0-4.4-3.6-8-8-8H267v-2h109c5.5,0,10,4.5,10,10v90H384z"/>
</svg>
